<?xml version="1.0" encoding="utf-8"?>
<!-- Generator: Adobe Illustrator 19.0.0, SVG Export Plug-In . SVG Version: 6.00 Build 0)  -->
<svg version="1.1" id="Logo_1_" xmlns="http://www.w3.org/2000/svg" xmlns:xlink="http://www.w3.org/1999/xlink" x="0px" y="0px"
	 viewBox="0 0 1024 1024" style="enable-background:new 0 0 1024 1024;" xml:space="preserve">
<style type="text/css">
	.st0{fill:#008BF9;stroke:#FFFFFF;stroke-width:20;stroke-miterlimit:10;}
	.st1{display:none;fill:#FFFFFF;stroke:#000000;stroke-miterlimit:10;}
</style>
<path id="Logo" class="st0" d="M50.9,512.4C50,257.7,257.4,51.1,512.1,51.1c206.9,0,317.9,93.4,424.8,272.8
	c17.3,29,5.7,73.1-21.8,73.1c-39,0-231.5,0.5-261.5,0.5c-34.1,0-54.5-17.6-56.5-74.6c-2.1-59.6-46.6-138.7-128.5-138.8
	C311,184,334,478,512,478.1c87.1,0,282.1,0.5,429.1,0.5c28.3,0,32.2,29.3,32.2,33.9c0,254.7-206.5,461.1-461.2,461.1
	c-87,0-298.3-35.9-418.9-276.2C75,661,78,627,132,627.5c66,0.6,174,0,246,0c42.2,0,47.2,54.7,48,68.8c1.1,19.4,24,152.9,135.7,148.6
	c156-5.9,143.3-298.8-49.7-298.3c-42.7,0.1-339.7-0.6-388-0.6C92.9,546,51,551,50.9,512.4z"/>
<circle id="Circle_1_" class="st1" cx="512.1" cy="512.2" r="461.2"/>
</svg>
